<svg data-name="Layer 1" xmlns="http://www.w3.org/2000/svg" xmlns:xlink="http://www.w3.org/1999/xlink" width="1132.93" height="839.14"><defs><linearGradient id="a" x1="819.93" y1="598.64" x2="819.93" y2="132.32" gradientUnits="userSpaceOnUse"><stop offset="0" stop-color="gray" stop-opacity=".25"/><stop offset=".54" stop-color="gray" stop-opacity=".12"/><stop offset="1" stop-color="gray" stop-opacity=".1"/></linearGradient><linearGradient id="b" x1="855.68" y1="218.69" x2="855.68" y2="216.24" xlink:href="#a"/><linearGradient id="c" x1="476.17" y1="658.02" x2="476.17" y2="395.19" gradientTransform="rotate(90 629.01 560.64)" xlink:href="#a"/><linearGradient id="d" x1="476.5" y1="725.77" x2="476.5" y2="463.92" gradientTransform="rotate(90 643.61 568.06)" xlink:href="#a"/><linearGradient id="e" x1="456.74" y1="719.17" x2="456.74" y2="457.32" gradientTransform="rotate(90 617.54 562.87)" xlink:href="#a"/><linearGradient id="f" x1="450.43" y1="726.27" x2="450.43" y2="464.42" gradientTransform="translate(123.74 -187.29)" xlink:href="#a"/><linearGradient id="g" x1="1003.59" y1="245.51" x2="1003.59" y2="74.84" gradientTransform="rotate(90 999.905 155.125)" xlink:href="#a"/><linearGradient id="h" x1="864.79" y1="849.53" x2="864.79" y2="427.42" xlink:href="#a"/></defs><path d="M481.34 56.33c-37.17-15.11-76.45-27.76-116.55-26.15-59 2.32-115.51 37.78-143.27 89.85-23.52 44.11-26.42 95.82-36.55 144.77-12.48 60.32-36.38 117.64-61.92 173.7-13.72 30.07-28.19 60.87-30.44 93.88-3.13 45.82 18.78 91.49 53.13 122s80 46.56 125.77 50.07c24.37 1.87 49.83.14 71.48-11.2 22.9-12 39.59-33.69 62.58-45.51 21.31-11 46.23-12.5 70.15-11.07a314.14 314.14 0 0 1 91.59 19.46c33.43 12.56 64.52 30.74 97.88 43.47s70.63 19.84 104.73 9.21c32-10 57.34-34.2 80.17-58.75a1028.14 1028.14 0 0 0 102.2-129.3c20.59-30.84 39.75-63.38 48.86-99.33 17.4-68.72-6.55-146.26-59.69-193.2-44-38.88-103.09-55.76-160.92-66-52.73-9.34-113.7-9.92-162.24-34.26-46.3-23.25-88.42-51.9-136.96-71.64z" fill="#bbb8fa" opacity=".1"/></svg>